<?xml version="1.0" encoding="iso-8859-1"?>
<!-- Generator: Adobe Illustrator 19.0.0, SVG Export Plug-In . SVG Version: 6.00 Build 0)  -->
<svg version="1.1" id="Layer_1" xmlns="http://www.w3.org/2000/svg" xmlns:xlink="http://www.w3.org/1999/xlink" x="0px" y="0px"
	 viewBox="0 0 512 512" style="enable-background:new 0 0 512 512;" xml:space="preserve">
<g>
	<g>
		<g>
			<path d="M297.045,178.095c6.869,4.42,17.579,4.83,26.027,0.973l63.991-32.213c-24.38-29.218-58.283-50.21-96.93-58.086v76.194
				C290.133,170.722,292.454,175.142,297.045,178.095z"/>
			<path d="M212.946,179.663c4.07-2.253,8.917-6.63,8.917-14.703V88.765c-38.639,7.876-72.55,28.868-96.922,58.086l64.29,32.367
				C196.314,183.605,205.778,183.639,212.946,179.663z"/>
			<path d="M347.223,245.469c-4.07,4.463-5.939,11.836-4.89,19.465c0.981,7.177,4.344,13.116,9.045,16.026l67.763,25.097
				c4.873-15.838,7.526-32.64,7.526-50.057c0-20.386-3.78-39.859-10.368-58.001L347.223,245.469z"/>
			<path d="M325.427,267.251c-1.826-13.295,1.988-26.138,10.214-34.355l1.195-0.998l72.695-49.946
				c-0.631-1.289-1.212-2.603-1.869-3.874c-0.998-1.903-1.971-3.814-3.046-5.709c-1.016-1.792-2.133-3.507-3.209-5.265
				c-1.314-2.125-2.577-4.258-4.002-6.357l-66.961,33.715c-13.943,6.366-30.959,5.495-42.633-2.014
				c-9.506-6.118-14.746-15.881-14.746-27.486V86.37c-1.186-0.128-2.381-0.247-3.567-0.358c-0.077-0.009-0.162-0.009-0.239-0.009
				c-8.704-0.674-17.903-0.683-26.82,0.017c-1.161,0.102-2.33,0.222-3.507,0.35v78.592c0,12.595-6.46,23.398-17.724,29.628
				c-12.544,6.955-28.749,6.75-40.354-0.521l-66.261-33.323c-1.417,2.091-2.679,4.216-3.994,6.332
				c-1.075,1.766-2.202,3.499-3.217,5.299c-1.075,1.886-2.048,3.797-3.038,5.692c-0.657,1.28-1.246,2.586-1.877,3.883l73.89,50.944
				c8.226,8.218,12.041,21.06,10.214,34.355c-1.741,12.698-8.499,23.492-18.091,28.885l-1.22,0.572l-68.437,25.336
				c1.476,3.516,3.089,6.98,4.804,10.402c0.085,0.162,0.154,0.324,0.239,0.486c1.579,3.132,3.294,6.204,5.069,9.242
				c1.246,2.116,2.492,4.224,3.823,6.289l74.052-31.343c10.854-5.453,24.073-4.847,34.876,1.818
				c10.803,6.673,17.246,18.236,17.246,30.925v75.759c1.186,0.128,2.381,0.247,3.567,0.358c0.077,0.009,0.162,0.009,0.239,0.009
				c8.704,0.674,17.903,0.683,26.82-0.017c1.161-0.102,2.33-0.222,3.507-0.35v-75.759c0-12.689,6.443-24.252,17.246-30.925
				c10.786-6.665,24.004-7.27,35.371-1.596l73.557,31.121c1.323-2.057,2.56-4.156,3.806-6.263c1.784-3.046,3.499-6.127,5.086-9.267
				c0.085-0.162,0.154-0.316,0.23-0.478c1.724-3.422,3.337-6.895,4.813-10.411l-69.658-25.907
				C333.926,290.743,327.168,279.949,325.427,267.251z M256,298.662c-23.526,0-42.667-19.14-42.667-42.667
				c0-23.526,19.14-42.667,42.667-42.667c23.526,0,42.667,19.14,42.667,42.667C298.667,279.522,279.526,298.662,256,298.662z"/>
			<path d="M256,230.396c-14.114,0-25.6,11.486-25.6,25.6s11.486,25.6,25.6,25.6s25.6-11.486,25.6-25.6S270.114,230.396,256,230.396
				z"/>
			<path d="M169.667,264.934c1.05-7.629-0.819-15.002-4.89-19.465L95.7,197.998c-6.588,18.142-10.368,37.615-10.368,58.001
				c0,17.417,2.654,34.219,7.526,50.057l67.763-25.097C165.323,278.049,168.685,272.11,169.667,264.934z"/>
			<path d="M256,0C114.842,0,0,114.842,0,256s114.842,256,256,256s256-114.842,256-256S397.158,0,256,0z M435.209,312.004
				l-0.179,0.495c-6.007,18.987-14.985,36.651-26.334,52.506l-3.251,4.617l-0.102-0.043C371.021,414.601,316.86,443.733,256,443.733
				s-115.021-29.133-149.342-74.155l-0.102,0.043l-3.251-4.617c-11.349-15.855-20.326-33.519-26.334-52.506l-0.179-0.495H76.8
				c-5.538-17.698-8.533-36.514-8.533-56.004c0-23.996,4.574-46.933,12.817-68.036l-0.137-0.094l1.929-4.463
				c0.179-0.418,0.367-0.828,0.546-1.246l0.316-0.742c0.128-0.29,0.282-0.572,0.41-0.862c1.212-2.756,2.483-5.47,3.831-8.158
				c0.154-0.316,0.316-0.623,0.478-0.939c5.521-10.897,12.075-21.18,19.524-30.737l1.297-1.749l0.06,0.026
				C143.77,95.932,196.702,68.267,256,68.267c59.298,0,112.23,27.665,146.662,70.733l0.06-0.026l1.297,1.749
				c7.45,9.549,13.995,19.831,19.516,30.72c0.162,0.324,0.333,0.649,0.495,0.973c1.34,2.679,2.62,5.402,3.831,8.158
				c0.128,0.282,0.273,0.563,0.401,0.845l0.307,0.717c0.188,0.435,0.375,0.853,0.555,1.28l1.929,4.454l-0.136,0.094
				c8.243,21.103,12.817,44.041,12.817,68.036c0,19.49-2.995,38.306-8.533,56.004H435.209z"/>
			<path d="M212.719,333.453c-5.734-3.533-12.74-3.857-18.765-0.836l-70.963,30.046c24.499,30.49,59.162,52.463,98.876,60.561
				v-73.361C221.867,343.13,218.445,336.994,212.719,333.453z"/>
			<path d="M299.279,333.454c-5.726,3.541-9.148,9.677-9.148,16.41v73.361c39.714-8.098,74.385-30.071,98.884-60.561l-70.477-29.824
				C312.028,329.597,305.005,329.904,299.279,333.454z"/>
		</g>
	</g>
</g>
<g>
</g>
<g>
</g>
<g>
</g>
<g>
</g>
<g>
</g>
<g>
</g>
<g>
</g>
<g>
</g>
<g>
</g>
<g>
</g>
<g>
</g>
<g>
</g>
<g>
</g>
<g>
</g>
<g>
</g>
</svg>
