<?xml version="1.0" encoding="UTF-8" standalone="no"?>
<!-- Created with Inkscape (http://www.inkscape.org/) -->

<svg
   xmlns:dc="http://purl.org/dc/elements/1.1/"
   xmlns:cc="http://creativecommons.org/ns#"
   xmlns:rdf="http://www.w3.org/1999/02/22-rdf-syntax-ns#"
   xmlns:svg="http://www.w3.org/2000/svg"
   xmlns="http://www.w3.org/2000/svg"
   version="1.2"
   width="744.09448"
   height="1052.3622"
   id="svg18178">
  <defs
     id="defs18180" />
  <metadata
     id="metadata18183">
    <rdf:RDF>
      <cc:Work
         rdf:about="">
        <dc:format>image/svg+xml</dc:format>
        <dc:type
           rdf:resource="http://purl.org/dc/dcmitype/StillImage" />
        <dc:title></dc:title>
      </cc:Work>
    </rdf:RDF>
  </metadata>
  <g
     id="layer1">
    <path
       d="m 592.29488,508.53196 c 2.78856,0.69714 60.14378,4.5912 62.93234,-4.47163 2.78857,-9.06283 -27.58658,-59.03649 -48.5008,-66.70504 -20.91422,-7.66855 -38.0515,-16.17874 -57.70379,-16.79117 0,0 -46.70842,-6.9714 -110.14823,-0.69714 0,0 59.68696,9.52445 73.43898,17.88646 5.87478,3.57215 14.80749,11.66467 16.92083,13.28181 14.67096,11.22637 26.39079,29.17729 42.84359,31.00536 18.8228,2.09142 20.21708,26.49135 20.21708,26.49135 z"
       id="path5935"
       style="fill:#1a1a1a;stroke:#1a1a1a;stroke-width:5.57712555px;stroke-linecap:butt;stroke-linejoin:miter;stroke-opacity:1" />
    <path
       d="m 454.70714,620.57401 c -3.31326,-1.38435 -9.34922,-5.58203 -13.41338,-9.3283 -24.08365,-22.19963 -25.7627,-67.45059 -3.41186,-91.95057 10.56185,-11.57739 20.12723,-15.91962 33.23097,-15.08523 42.09447,2.68037 59.95884,68.81498 28.32153,104.84784 -10.83117,12.33605 -30.58947,17.42333 -44.72726,11.51626 z m 26.47484,-13.99813 c 15.46347,-7.65422 25.76208,-26.84076 24.43751,-45.52748 -1.78691,-25.20938 -19.0509,-43.25601 -41.20537,-43.07314 -20.37563,0.16787 -35.60676,14.33483 -39.80004,37.01862 -4.13081,22.34542 6.94916,44.42314 26.36575,52.53585 8.62871,3.60533 21.834,3.18833 30.20215,-0.95385 z m -27.90906,-4.60063 c -6.81536,-2.59125 -16.1885,-12.00538 -19.57476,-19.6606 -4.99972,-11.30254 -4.56376,-26.51471 1.09105,-38.0728 5.08355,-10.39035 9.421,-14.40856 19.85452,-18.39319 20.14563,-7.69365 42.20422,8.92518 44.43017,33.47351 2.18896,24.14009 -12.89287,44.12365 -33.32896,44.16091 -4.65595,0.0167 -10.26838,-0.67009 -12.47202,-1.50783 z m 14.48084,-30.24018 c 2.20414,-2.20414 4.0075,-5.91103 4.0075,-8.23764 0,-4.94641 -6.63678,-12.24519 -11.13445,-12.24519 -5.73853,0 -11.72329,6.25106 -11.72329,12.24519 0,3.9727 1.1818,6.40706 4.30192,8.86133 5.64941,4.44391 9.65244,4.2723 14.54832,-0.62369 z m -11.5031,-8.26 c 0,-3.69362 0.74856,-4.87569 3.08744,-4.87569 4.52785,0 7.07241,4.7743 4.31514,8.0967 -3.43574,4.13973 -7.40258,2.41378 -7.40258,-3.22101 z m 47.61365,49.41155 c 7.82822,-8.49313 13.74488,-20.31797 16.13452,-32.24583 1.59807,-7.97668 2.28717,-9.03762 6.1693,-9.49639 5.34528,-0.63206 5.4508,0.75625 1.12245,14.76967 -3.85229,12.47219 -10.56118,22.27086 -19.86081,29.00736 -9.56611,6.92969 -11.04845,6.08375 -3.56546,-2.03481 z m 77.85188,-14.30193 c -9.91005,-2.63815 -20.75014,-8.62882 -26.22961,-14.49595 l -3.80288,-4.07175 6.25191,-0.99156 c 3.43852,-0.54544 11.02753,-0.90221 16.86444,-0.79301 8.80467,0.16453 61.83326,-6.38497 74.69595,-9.2259 4.90564,-1.08347 4.69349,1.68546 -0.72865,9.50966 -12.38892,17.87709 -41.9957,26.73853 -67.05116,20.06851 z M 195.24224,579.875 c 6.722,-1.75317 12.66036,-14.14694 14.32301,-21.06748 1.08815,-4.52908 1.40493,-4.66298 9.24487,-3.90963 4.46499,0.42889 3.87906,0.47741 3.87906,0.47741 1.52802,1.52807 -8.62001,15.01289 -12.46895,17.70882 -2.13749,1.49701 -14.88864,6.51079 -19.43885,7.79532 l -7.40854,2.09142 z m -41.34568,-6.86026 c -3.43551,-3.26479 -18.41746,-19.57828 -19.80945,-38.98662 0,0 -0.49581,-13.4528 3.24382,-23.30982 3.73969,-9.85701 27.24343,-17.68885 29.12386,-17.39438 1.88044,0.29447 -13.7388,8.78358 -14.99544,11.19686 -6.81078,13.07925 -8.16954,20.71947 -7.35466,30.91501 0.81487,10.19554 4.27626,21.63992 10.19113,27.23517 9.14805,8.65369 34.21004,9.83855 41.58874,-4.43058 1.43059,-2.76648 4.88183,-15.19226 3.78553,-21.80138 -1.00065,-6.03233 8.12805,-4.85583 8.12805,-4.85583 0,0 1.74631,12.26114 0.0279,18.47724 -6.63717,24.01298 -30.1278,45.57404 -53.92974,22.95467 z m 389.06586,-5.40836 0,-4.73253 14.61831,0.35136 c 8.04004,0.19353 15.14993,0.68019 15.79966,1.08163 0.6498,0.40155 27.25034,-2.58617 59.11241,-6.63968 64.93581,-8.26101 58.5051,-9.35568 58.5051,-5.93791 0,3.12157 0.55604,3.00808 -53.06267,10.8387 -42.91246,6.2669 -62.02756,10.02209 -80.88366,9.60347 -7.8769,-0.17512 -14.08915,10e-4 -14.08915,-4.56521 z M 156.6588,558.13369 c -6.76974,-10.24697 -7.89727,-24.13858 -7.89727,-32.64482 0,-28.66425 33.03114,-28.90501 44.92419,-6.4355 1.87409,3.54075 2.81333,9.25976 2.87468,17.5042 0.0759,10.16443 -0.6025,13.4648 -3.9906,19.42167 -6.47527,11.38448 -28.298,13.67779 -35.911,2.15445 z m 23.54924,-23.17753 c 1.34175,-4.83057 -3.10969,-9.93376 -7.24993,-12.14949 -6.95495,-3.72223 -13.16201,4.98483 -9.81998,13.77494 2.33163,6.13277 12.9642,10.86357 15.32706,4.64909 z m -13.17445,-2.11362 c 0,-2.74127 0.039,-5.30881 3.02698,-5.58622 4.37866,-0.40657 6.78034,2.52326 5.81555,5.93479 -0.95475,3.37594 -0.79825,5.91794 -5.46698,4.88902 -4.60687,-1.01526 -2.67841,-1.45061 -3.37555,-5.23759 z m 15.65878,-104.08155 c 9.03768,-14.64904 21.69329,-34.97203 27.33065,-41.56525 11.93895,-13.9634 24.01131,-23.75995 31.13509,-27.35067 11.87431,-5.9851 44.13709,-14.67415 77.05713,-15.0177 19.6616,-0.20524 39.90428,0.38984 67.82164,2.62292 39.17223,3.1334 109.27474,11.29469 74.7017,11.23529 -21.64572,-4.40219 -46.34575,-4.89131 -54.50514,-1.21531 -9.88479,4.45306 -17.13394,7.30386 -17.13394,13.65855 0,4.33811 4.99371,29.3248 11.42335,38.35439 2.35706,3.31025 5.22203,4.92767 10.11395,5.70992 3.75391,0.60027 1.96494,1.39701 0.84449,1.77046 -1.12044,0.37367 -2.03716,1.67486 -2.03716,2.89202 0,2.65443 6.33523,5.28365 34.28667,4.92181 57.16827,-0.74003 103.13823,44.07959 102.42201,43.77893 l 11.1291,17.90224 -3.23908,3.44783 c -15.69844,16.71019 -7.32316,53.20059 12.21061,53.20059 6.80209,0 14.55781,-6.33115 17.06606,-13.93138 l 1.86834,-5.661 14.33053,0 c 14.27733,0 49.93982,2.33202 63.10836,-3.25844 4.63152,-1.96621 9.80408,-2.79899 10.81148,-4.08374 1.49456,-1.90598 2.00442,-1.47169 2.77083,2.36019 0.51644,2.58276 2.86725,6.98736 5.22376,9.78796 4.01425,4.77062 12.48841,7.41457 10.08483,10.84618 -0.47461,11.65658 -3.34549,-13.37646 -5.89312,-4.36779 0.48131,9.72896 8.13931,13.99167 -52.04579,16.46569 -36.07263,1.48284 -51.92511,5.79218 -69.9646,5.6392 -25.54017,-0.21696 -24.58168,-3.78135 -24.58168,3.9955 0,4.3621 -0.72804,3.41337 -6.56299,3.41337 -3.45648,0 14.16707,1.15832 7.2966,0.57746 l -10e-4,0 -12.49153,-1.05586 0,-5.30285 c 0,-15.00213 -17.36237,-54.33252 -28.00732,-63.44421 -12.06884,-10.33045 -21.82257,-13.02666 -46.68261,-12.90435 -19.92807,0.0982 -22.3172,0.44394 -30.40977,4.40336 -15.93586,7.79666 -22.06624,22.27131 -23.44959,55.36753 l -0.87388,20.90692 -8.35169,-0.92525 c -4.59343,-0.50919 -30.99431,-3.48174 -72.30163,-6.60638 -41.30726,-3.12448 -90.04375,-6.09881 -94.67031,-6.60934 l -8.41193,-0.92837 -2.61399,-14.092 c -4.97045,-26.79541 -11.24154,-44.32203 -35.73136,-47.59876 -15.45963,-2.06845 -36.61685,0.6291 -41.31078,5.00218 -4.39148,4.09127 -6.86912,16.6263 -5.40825,27.36154 0.64154,4.7144 1.11453,8.54048 1.05101,8.50244 -0.0636,-0.039 -4.73788,3.82413 -9.79243,3.41917 l -20.23916,-2.43726 0.55659,-7.71294 c 0,0 -2.315563,-8.21165 -4.528065,-10.01836 -2.212501,-1.80676 -10.682705,-2.23325 -10.682705,-2.23325 -0.12437,-4.90787 -2.079375,-15.42967 -2.168163,-24.6698 -0.133293,-13.8519 6.691993,-30.48406 15.68745,-38.60665 7.166443,-6.47102 38.868163,-1.3119 53.135953,-3.60221 l 5.29269,-6.52044 c -23.86792,6.34633 -56.00204,-3.15096 -63.114376,7.24988 -3.58994,5.2498 -16.428985,11.71096 -17.938156,24.40349 -1.413187,11.88552 1.320831,21.01796 1.183355,25.1162 -0.793737,4.44201 -0.04462,8.65608 0.65085,11.95479 -0.440592,1.06835 -5.564855,2.37301 -6.933259,4.8362 -2.382102,4.28797 -1.171643,13.16548 -0.771205,14.69539 0.400438,1.52992 2.032695,5.27814 4.404647,6.31515 2.372007,1.03695 0.861164,0.73222 8.594796,2.3715 7.733633,1.63929 38.092768,5.69966 38.092768,5.69966 15.59091,2.3328 8.36948,-5.42113 8.36948,-1.91184 0,5.64472 9.8467,27.23299 14.76974,33.68757 7.73363,10.13921 18.34618,18.75888 39.52877,18.13536 17.92365,0.48075 24.41247,-8.10077 33.77758,-16.4055 4.61993,-4.09685 9.22306,-10.14139 10.02767,-15.57547 4.98763,2.58333 51.73208,3.28672 97.47344,6.8568 45.74135,3.57003 79.84625,7.19053 83.45727,7.19332 l 6.5654,0 1.92137,10.11033 c 3.87354,20.38261 15.65689,37.27644 31.81432,45.61269 7.81283,4.03097 26.71667,5.47902 41.33364,3.1663 l 6.2e-4,0.004 c 10.57172,-1.67253 20.28261,-6.68458 27.86995,-14.38441 6.86533,-6.96723 16.07875,-25.59176 17.77586,-35.93309 l 1.13874,-6.93895 -6.2118,1.14387 c 14.15056,-2.57663 8.60244,4.83319 17.89599,14.46121 31.45756,32.59032 90.73448,25.88801 109.31696,-12.36003 l 3.33657,-6.86761 11.06686,-3.58961 c 15.26755,-4.95215 19.43539,-3.19815 21.94225,-6.29406 3.89668,-4.81206 3.06798,-11.64298 -1.66432,-13.71912 -2.95309,-1.29573 -3.67354,-2.92905 -3.67354,-8.32804 0,-3.69401 6.72199,17.58925 7.70781,14.76131 1.30577,-3.74576 1.29975,-6.55507 -0.0223,-10.34735 -1.65579,-4.74982 -1.39267,-5.64316 3.00557,-10.20436 11.32151,-11.74096 11.26155,-30.86766 -0.13664,-43.53353 -7.37653,-8.1971 -33.48428,-41.96458 -54.16075,-43.69818 -8.99981,-0.75458 -6.50672,-1.14665 -10.54919,-3.72384 -18.69564,-11.91871 -33.41289,-23.69604 -91.28924,-30.08017 -11.19948,-1.23539 1.72953,-2.89503 1.46517,-3.68805 -2.48277,-7.44841 -17.51814,-28.90445 -28.05584,-40.03679 -12.34475,-13.04144 -10.46079,-2.78148 -21.71404,-6.0862 -28.25539,-8.29793 -97.76378,-14.48335 -152.10455,-16.82675 -45.2779,-1.95255 -91.33486,7.1805 -110.47333,18.53022 -16.10177,9.54888 -49.24986,52.1739 -54.68449,65.05985 m 22.71686,-8.54806 c -1.86717,4.77179 -2.30732,5.58873 -3.04623,10.37412 l -0.0759,4.89812 26.47177,-1.2857 c 14.36774,-0.32347 57.52655,-1.84017 63.34845,-2.41445 l 10.58533,-1.04415 5.15025,-37.15961 4.16439,-34.69485 -4.28413,0 c -7.91589,0 -55.37204,6.66372 -64.28624,11.69457 -4.85985,2.74271 -14.23048,10.8228 -17.12602,16.06033 -6.09786,11.03 -14.07482,16.12459 -20.90172,33.57162 z m 192.49995,-9.60102 c -4.93893,-9.43399 -12.72856,-25.0863 -19.01448,-33.9309 -4.92444,-6.7631 -11.87995,-10.05974 -14.17879,-11.1668 -4.47012,-2.15271 -15.31138,-4.94473 -30.66431,-4.94473 -20.86487,0 -12.31909,-0.47071 -12.84914,1.05491 -1.08626,3.12598 -7.78824,69.00254 -7.05027,69.74051 1.28229,1.28229 46.81852,0.29614 48.33388,-1.10031 0.85313,-0.78621 10.40441,-1.41375 21.22509,-1.39462 0,0 14.29624,0.49357 15.34195,-2.64334 3.83427,-4.18284 -1.14393,-15.61472 -1.14393,-15.61472 z m -18.08823,24.42156 4.1317,6.08777 -0.32961,7.13588 c -0.18293,3.96266 -28.04073,-2.75984 -28.77323,6.4606 -0.56998,7.17486 18.25064,-0.0446 14.47649,6.0823 -2.66179,4.32216 10.0724,-0.33128 10.32387,4.47179 0.37869,7.23783 -0.36307,54.38897 0.24874,62.62889 0.9683,13.04384 1.35078,24.12603 0.84985,24.62692 -0.88035,0.88034 -87.94531,-4.49768 -88.95198,-5.48349 -0.61404,-0.60133 -3.43952,-59.88645 -3.52312,-73.91554 l -0.0608,-10.20436 c -0.83758,-5.41533 1.24448,-9.1795 9.19528,-17.1786 1.67749,-1.27047 4.33571,-2.33325 5.90718,-2.36186 4.00243,-0.0725 3.83751,-6.58268 -0.16675,-6.58268 -5.50608,0 -14.05486,7.22171 -18.02511,15.22706 l -3.90566,7.87518 1.91597,45.97107 c 1.05385,25.28407 2.44406,46.42968 3.08939,46.99035 1.04136,0.9045 85.66431,6.79712 97.38559,6.67549 l 4.65434,-0.0502 -1.38893,-20.81695 1.7e-4,0.003 c -2.52064,-37.77889 -1.79043,-76.50489 1.67994,-89.09419 l 3.06887,-11.13283 3.54493,-5.66982 m -74.09156,-12.36231 c 0.0279,-2.91846 2.09929,-18.05701 3.40105,-30.6288 1.30175,-12.57178 2.3821,-23.00553 2.40073,-23.18611 0.0167,-0.1807 -4.35144,0.4378 9.56862,0.16954 16.13295,-0.3112 21.13691,1.32234 28.04686,3.405 10.62113,3.20166 25.26873,39.97238 30.14643,48.83315 5.55063,10.08322 -11.65358,5.2218 -30.41843,6.4355 -7.13454,-0.28499 -13.67243,-0.31065 -24.91999,0.53819 -9.6303,0.72681 -6.25285,-0.79803 -10.51829,-0.60729 -7.74111,0.34634 -7.70698,-10.25611 -7.70698,-4.95952 z M 404.511,556.55804 c -0.83177,-10.04976 1.56126,-34.18115 4.33621,-43.72667 3.14249,-10.8097 10.36872,-19.46323 18.50463,-22.15949 3.37656,-1.11899 15.04251,-2.05344 26.44974,-2.11852 17.67564,-0.10095 21.39268,0.35414 27.7559,3.39741 l 7.34714,3.51398 -11.42887,0.16118 c -22.80051,0.3218 -41.02807,10.42856 -51.23114,28.40631 -5.48499,9.66471 -9.9951,23.79949 -9.9951,31.32527 0,6.30812 -0.92904,7.32298 -6.70432,7.32298 -4.05317,0 -4.58055,-0.64148 -5.03419,-6.12262 z m 87.73839,-54.07525 c 2.07609,-2.14474 8.64349,2.15003 11.07054,7.23961 l 2.82342,5.92073 -7.23944,-6.27806 c -3.98168,-3.45291 -6.97621,-6.54989 -6.65452,-6.88228 z m 72.62193,29.57694 c -6.04516,-6.67983 -6.98401,-24.66779 -1.82038,-34.87878 3.08873,-6.10802 6.26446,-6.69902 10.68907,-1.98925 3.39669,3.61559 3.84738,5.66625 3.84738,17.50537 0,18.54455 -5.65867,27.16099 -12.71607,19.36266 z M 552.8423,516.54439 c 0.44728,-1.10538 0.78592,0.19464 0.75268,2.88834 -0.0335,2.69392 -0.39932,3.59836 -0.81314,2.00977 -0.41382,-1.58859 -0.3865,-3.79272 0.0602,-4.89811 z m 134.74798,2.24201 c -4.59315,-9.1113 -1.26846,-24.82624 5.45789,-25.79811 6.42328,-0.92804 9.82628,15.34841 5.42866,25.96525 -2.48394,5.99686 -7.82047,5.91494 -10.88655,-0.16731 z m -101.03214,-6.29256 c -0.0223,-12.23069 -9.77776,-28.16404 -17.23951,-28.16404 -1.58441,0 -8.09949,-2.47714 -14.47788,-5.50468 -15.04045,-17.86822 -55.59279,-58.14008 -116.43962,-60.81392 -13.26006,-0.5827 -23.89269,-1.35123 -23.63235,-1.61157 0.26045,-0.26045 10.00581,-1.67743 21.65665,-3.14907 17.28792,-2.18372 29.28961,-2.47814 65.26615,-1.60114 71.95535,1.75412 87.45317,13.30976 116.56187,25.32701 12.29588,5.07625 31.60389,44.91957 38.65561,52.76274 7.19633,8.00406 11.62992,17.51853 10.06437,21.59825 -1.33918,3.48983 -28.28077,5.00854 -61.222,5.41171 l -19.1842,0.2348 -0.0112,-4.48993 z m -33.72616,-7.34714 c 0.45286,-1.12245 0.82346,-0.20412 0.82346,2.04089 0,2.24496 -0.37032,3.16335 -0.82346,2.04084 -0.45287,-1.12245 -0.45287,-2.95922 0,-4.08173 z m 106.38824,-22.55027 -7.59175,-7.61769 -9.86722,-26.79931 c -1.13299,-3.07718 13.68577,3.88848 21.94164,9.93208 15.77072,11.5447 21.94978,24.90058 21.94978,24.90058 l -4.16633,4.95143 c -2.29148,2.72325 -4.63504,6.91519 -5.20792,9.31547 -1.73917,7.28663 -2.40045,7.28351 -6.00127,-0.0279 -1.90581,-3.87003 -6.88145,-10.46442 -11.05693,-14.65418 z M 204.48505,422.7537 c 2.66542,-9.39227 12.55545,-24.8075 19.87157,-32.81251 5.56419,-6.0881 10.68081,-15.12054 18.8735,-19.08058 11.50834,-5.56273 54.95543,-9.72327 56.50944,-8.16926 0.88113,0.88113 -6.82244,57.67975 -7.95214,58.80945 -0.75715,0.75715 -58.00222,4.19171 -76.98475,4.66778 -9.96654,0.24985 -11.32496,0.13496 -10.31762,-3.41488 z m 201.07796,-17.56856 c -1.73995,-2.21205 -3.88095,-14.43103 -8.16591,-22.89298 -9.43566,-18.63351 8.20384,-18.42231 17.08072,-20.78952 15.55243,-4.14737 35.76109,-2.65705 71.95965,7.0448 14.99243,3.03513 22.02,-4.96369 28.82203,2.61451 7.26967,8.09915 20.59063,27.15324 22.54647,32.25 1.05258,2.743 -1.12351,2.84183 -41.17569,1.8699 -32.18225,-0.78096 -45.99333,-0.4813 -57.79759,1.25341 -8.53089,1.25379 -19.68196,2.36782 -24.78018,2.47568 -8.03111,0.1701 -5.74856,-0.34132 -8.4895,-3.8258 z m 63.09748,-55.88675 c 1.58859,-0.41383 3.79273,-0.3865 4.89811,0.0602 51.8661,21.09235 30.65975,17.06913 -4.89811,-0.0608 z"
       id="path4583-0"
       style="fill:#000000" />
    <path
       d="m 100.76116,440.08406 c 0,0 34.3991,-11.98128 83.89609,-16.16412"
       id="path5927"
       style="fill:none;stroke:#1a1a1a;stroke-width:5.57712555px;stroke-linecap:butt;stroke-linejoin:miter;stroke-opacity:1" />
    <path
       d="m 517.48215,334.26731 c 0,0 82.95974,25.09706 104.5711,23.70278 21.61136,-1.39428 55.14417,-7.33024 54.44703,-15.34736 0,0 -46.77848,-20.20681 -69.78412,-22.29824 -23.00565,-2.09142 -94.114,-3.4857 -111.54251,11.15426 -17.42852,14.63995 -80.69917,82.11397 -80.69917,82.11397"
       id="path5937"
       style="fill:#ffffff;stroke:#1a1a1a;stroke-width:5.57712555px;stroke-linecap:butt;stroke-linejoin:miter;stroke-opacity:1" />
    <path
       d="m 417.96018,414.28986 c 0,0 85.57915,-78.62827 97.43055,-77.93113 11.85139,0.69714 94.11399,28.58277 137.33671,16.73138 43.22273,-11.8514 15.93513,-8.60489 15.93513,-8.60489 L 567.84543,414.987 c 0,0 -46.70842,-11.85139 -75.29119,-13.24567 -28.58277,-1.39429 -74.59406,12.54853 -74.59406,12.54853 z"
       id="path5912"
       style="fill:#ffffff;stroke:#1a1a1a;stroke-width:5.57712555px;stroke-linecap:butt;stroke-linejoin:miter;stroke-opacity:1" />
    <path
       d="m 586.35469,507.50677 c 0,0 1.60476,-15.28746 -10.19315,-21.98045 -9.5907,-5.44082 -16.31811,-4.32479 -23.70278,2.78856"
       id="path5939"
       style="fill:none;stroke:#ffffff;stroke-width:2.23085022;stroke-linecap:butt;stroke-linejoin:miter;stroke-miterlimit:4;stroke-opacity:1;stroke-dasharray:none" />
    <path
       d="m 232.76665,375.49454 -10.89028,55.41063"
       id="path6871"
       style="fill:none;stroke:#1a1a1a;stroke-width:5.57712555px;stroke-linecap:butt;stroke-linejoin:miter;stroke-opacity:1" />
    <path
       d="m 186.63021,433.61644 c 0,0 -10.35203,3.9437 -10.845,11.3379 -0.49301,7.39432 -5e-5,38.45033 -5e-5,38.45033"
       id="path6880"
       style="fill:none;stroke:#1a1a1a;stroke-width:5.57712555px;stroke-linecap:round;stroke-linejoin:miter;stroke-opacity:1" />
    <path
       d="m 76.660144,508.31083 c 0,0 4.11235,-2.9233 5.756375,-1.31497 1.644081,1.60833 -1.398409,4.54413 0.15114,4.58607 3.098763,0.0837 10.670659,1.11035 10.84578,2.49989 0.175122,1.38954 3.9186,10.40597 2.464755,13.0633 -1.453789,2.65733 -18.719064,1.51441 -21.436128,-5.27808 -1.478887,-3.69713 -3.204226,-11.83087 2.218246,-13.55621 z"
       id="path7821"
       style="fill:#ffffff;stroke:#1a1a1a" />
  </g>
</svg>
