<svg width="100%" viewBox="0 0 3785 4010" fill="none" xmlns="http://www.w3.org/2000/svg">
    <path d="M1087.5 1937.5C1030.5 1905 861.5 1783.5 772 1835M1299 2029C1366.5 2016 1642.5 2033.84 1805.5 2123.34C1935.9 2194.94 2029.67 2214.16 2070.5 2213.66C2073.67 2222.83 2056.1 2226.76 2004.5 2253.16" stroke="#7C7C7C" stroke-width="7" stroke-linecap="round" stroke-linejoin="round" class="helmet-1"></path>
    <path d="M1322.5 2270C1301.83 2320.33 1263.2 2436.1 1274 2496.5C1284.8 2556.9 1249.5 2575.67 1230.5 2577.5" stroke="#7C7C7C" stroke-width="7" stroke-linecap="round" stroke-linejoin="round" class="helmet-2"></path>
    <path d="M1017 2067.5C1018.33 2097.33 1004.3 2166.9 939.5 2148.5C874.7 2130.1 901.333 2077.17 923.5 2051" stroke="#7C7C7C" stroke-width="7" class="helmet-3"></path>
    <path d="M1550 2191C1607 2169.89 1795.25 2246.46 1830 2322C1720.42 2338.45 1663.24 2333.13 1622.56 2322M1550 2191C1530.5 2198.22 1496.93 2210.66 1484 2218.5C1465.37 2229.79 1472.5 2274 1539 2292.5C1548.97 2295.27 1558.07 2298.54 1567 2301.99M1550 2191C1530.99 2196 1555.67 2271.16 1567 2301.99M1671.5 2209.28C1671.5 2248.28 1651.44 2301.45 1622.56 2322M1622.56 2322C1601.23 2316.16 1584.43 2308.72 1567 2301.99" stroke="#7C7C7C" stroke-width="7" class="helmet-4"></path>
    <path d="M1207.5 2230C1162.17 2283.29 1000.61 2475.35 996.5 2519C994.571 2539.48 1009 2559.5 1046.5 2565C1076.5 2569.4 1166 2572.83 1232 2584" stroke="#7C7C7C" stroke-width="7" stroke-linecap="round" stroke-linejoin="round" class="helmet-5"></path>
    <path d="M936.5 2151.5C868 2141 851.5 2083 863 2078C889.35 2053.78 911.728 2053.06 950 2049C1060 2051 1147.5 2194 1116 2179.5C1084.5 2165 1005 2162 936.5 2151.5Z" stroke="#7C7C7C" stroke-width="7" class="helmet-6"></path>
    <path d="M900.999 1553C886.879 1615.01 837.27 1741.76 781.501 1819.5C765 1842.5 764.167 1845 758.5 1857C741.5 1893 806.5 2018.5 790 2064.5C780.667 2108 759.2 2200 748 2220C734 2245 717 2351 729 2397.5C738.6 2434.7 745.667 2481 748 2499.5" stroke="#7C7C7C" stroke-width="7" class="helmet-7"></path>
    <path d="M1840.5 3780C1997.7 3689.6 2663.33 3524.33 2976.5 3453C3140.33 3331 3518.1 2904.8 3718.5 2176C3918.9 1447.2 3538.17 873.5 3321 628.5C3207.33 486.5 2860 118 2190 28.0002C1520 -61.9998 1146 220.493 958.5 407.995C749 617.495 711 743.996 596 873.996C443 969.496 47.5 1403 25.9999 1556.5C8.79989 1679.3 201.833 1748.33 300.5 1767.5C266.833 1876.83 199.5 2111.6 199.5 2176C123 2329.5 118.5 2500 118.5 2555.5C105 2636.5 103.5 2542.5 25.9999 2828C-36.0001 3056.4 99.1666 3430.83 174.5 3589.5C208.333 3670.83 333.1 3858.5 561.5 3958.5C847 4083.5 1644 3893 1840.5 3780Z" stroke="#F3B93B" stroke-width="20" stroke-linejoin="round" class="helmet-8"></path>
    <path d="M199 2185C224.833 2270.83 318.5 2456.2 486.5 2511C696.5 2579.5 1412.5 2794 2056 2622.5C2570.8 2485.3 2716.5 2339.67 2725 2284C2745 2255.33 2783.4 2174.4 2787 2068" stroke="#F3B93B" stroke-width="20" stroke-linecap="round" class="helmet-9"></path>
    <path d="M634.958 834.008C629.441 833.755 624.764 838.023 624.511 843.54C624.259 849.057 628.526 853.734 634.043 853.987L634.958 834.008ZM2785.5 2078C2791.02 2078 2795.5 2073.52 2795.5 2068C2795.5 2062.47 2791.02 2058 2785.5 2058V2078ZM228.469 2064.29C228.905 2058.78 224.795 2053.96 219.29 2053.53C213.784 2053.09 208.967 2057.2 208.531 2062.71L228.469 2064.29ZM278.001 2243L270.156 2249.2L278.001 2243ZM1233 2586L1232.33 2595.97L1233 2586ZM2711.92 2061.9C2561.17 1866.05 2276.75 1570.02 1912.88 1317.52C1549.05 1065.06 1104.94 855.526 634.958 834.008L634.043 853.987C1098.86 875.268 1539.33 1082.65 1901.47 1333.95C2263.56 1585.21 2546.5 1879.78 2696.08 2074.1L2711.92 2061.9ZM2704 2078H2785.5V2058H2704V2078ZM208.531 2062.71C207.073 2081.11 210.524 2112.43 220.074 2146.38C229.662 2180.46 245.689 2218.25 270.156 2249.2L285.845 2236.8C263.513 2208.55 248.455 2173.41 239.327 2140.96C230.16 2108.38 227.26 2079.55 228.469 2064.29L208.531 2062.71ZM270.156 2249.2C328.879 2323.48 377.089 2379.56 472.822 2423.58L481.179 2405.41C389.912 2363.44 344.122 2310.51 285.845 2236.8L270.156 2249.2ZM472.822 2423.58C567.427 2467.09 904.276 2573.77 1232.33 2595.97L1233.68 2576.02C908.049 2553.98 573.574 2447.9 481.179 2405.41L472.822 2423.58ZM1232.33 2595.97C1557.69 2618 1674.05 2620.04 1936.13 2576.86L1932.87 2557.13C1672.95 2599.95 1558.31 2598 1233.68 2576.02L1232.33 2595.97ZM1936.13 2576.86C2067.38 2555.24 2245.87 2506.22 2399.34 2424.19C2552.47 2342.34 2682.93 2226.39 2713.81 2069.93L2694.19 2066.06C2665.07 2213.6 2541.28 2325.65 2389.91 2406.55C2238.88 2487.28 2062.62 2535.76 1932.87 2557.13L1936.13 2576.86Z" fill="#F3B93B" class="helmet-10"></path>
    <path d="M2298.5 2065V2055C2294.68 2055 2291.2 2057.17 2289.52 2060.6L2298.5 2065ZM2289.52 2060.6C2253.84 2133.36 2173.85 2251.54 2053.8 2358.88C1933.81 2466.16 1774.28 2562.18 1579.51 2591.61L1582.49 2611.39C1782.12 2581.22 1945.09 2482.9 2067.13 2373.79C2189.1 2264.74 2270.66 2144.48 2307.48 2069.4L2289.52 2060.6ZM2298.5 2075H2700V2055H2298.5V2075Z" fill="#F3B93B" class="helmet-11"></path>
    <path d="M2303 2069.5C1990.17 1920.5 1261.5 1626.05 824 1528C413.5 1436 161.833 1413.5 101 1403.5" stroke="#F3B93B" stroke-width="20" class="helmet-12"></path>
    <path d="M3344 1643.5C3344 1768.85 3260.77 1867 3162 1867C3063.23 1867 2980 1768.85 2980 1643.5C2980 1518.14 3063.23 1420 3162 1420C3260.77 1420 3344 1518.14 3344 1643.5Z" stroke="#F3B93B" stroke-width="20" class="helmet-13"></path>
    <path d="M3383 2965C3371.17 2957.17 3336.7 2946.2 3293.5 2965C3239.5 2988.5 2992 3201.5 2940 3225C2888 3248.5 1710.5 3791 1391 3803.5C1071.5 3816 1202.5 3605 1207.5 3582.5C1211.5 3564.5 1277.83 3426 1310.5 3359C1332.33 3307.83 1338 3225 1225 3190.5C1153.17 3166.33 998.6 3119.2 955 3124C911.4 3128.8 1099.5 3098.5 1225 3072.5C1540 2997.33 2244.5 2806 2470.5 2715.5C2713.83 2633.67 3241.5 2401.77 3459.5 2247C3625 2129.5 3749.5 1973.5 3767.5 1913.5" stroke="#F3B93B" stroke-width="20" class="helmet-14"></path>
    <path d="M179.5 2936L181.763 2945.74L179.5 2936ZM355.5 2990.5L349.868 2998.76C354.204 3001.72 360.086 3000.82 363.342 2996.7C366.598 2992.59 366.12 2986.66 362.248 2983.12L355.5 2990.5ZM150 2602.5L140.579 2605.85C140.589 2605.88 140.599 2605.91 140.609 2605.94L150 2602.5ZM112.553 3463.35C121.717 3477.81 135.65 3498.22 147.483 3511.97C150.463 3515.43 153.432 3518.62 156.257 3521.23C158.942 3523.71 162.073 3526.23 165.378 3527.74C168.409 3529.13 175.142 3531.09 180.726 3525.88C185.072 3521.82 185.5 3515.94 185.5 3512.5H165.5C165.5 3515.36 164.793 3513.39 167.081 3511.26C170.607 3507.97 174.359 3509.85 173.7 3509.55C173.315 3509.38 172.047 3508.59 169.835 3506.55C167.764 3504.63 165.339 3502.06 162.642 3498.93C151.767 3486.29 138.449 3466.85 129.447 3452.65L112.553 3463.35ZM185.5 3512.5C185.5 3507.75 184.412 3498.14 182.747 3485.77C181.038 3473.08 178.605 3456.7 175.696 3437.85C169.877 3400.15 162.119 3352.38 154.373 3304.28C146.622 3256.15 138.882 3207.68 133.08 3168.47C127.212 3128.82 123.5 3099.7 123.5 3089.5L103.5 3089.5C103.5 3101.55 107.538 3132.49 113.295 3171.4C119.118 3210.75 126.878 3259.35 134.627 3307.46C142.382 3355.62 150.124 3403.29 155.93 3440.9C158.833 3459.71 161.243 3475.95 162.925 3488.44C164.65 3501.25 165.5 3509.38 165.5 3512.5H185.5ZM123.5 3089.5C123.5 3063.05 127.53 3028.69 137.399 2999.86C147.514 2970.31 162.43 2950.23 181.763 2945.74L177.237 2926.26C147.071 2933.27 128.986 2962.69 118.477 2993.39C107.72 3024.81 103.5 3061.45 103.5 3089.5L123.5 3089.5ZM181.763 2945.74C182.917 2945.47 185.88 2945.26 191.113 2945.59C196.07 2945.9 202.292 2946.64 209.474 2947.8C223.823 2950.11 241.513 2953.99 259.692 2959.03C277.877 2964.07 296.352 2970.21 312.321 2976.99C328.508 2983.87 341.282 2991.05 348.752 2997.88L362.248 2983.12C352.218 2973.95 336.904 2965.7 320.138 2958.58C303.154 2951.37 283.81 2944.96 265.033 2939.76C246.249 2934.55 227.832 2930.5 212.654 2928.06C205.072 2926.83 198.174 2925.99 192.372 2925.63C186.844 2925.28 181.408 2925.29 177.237 2926.26L181.763 2945.74ZM361.132 2982.24C346.563 2972.31 323.858 2955.07 303.405 2935.88C293.184 2926.29 283.668 2916.34 276.044 2906.69C268.338 2896.93 262.981 2887.99 260.507 2880.4L241.493 2886.6C245.019 2897.41 251.996 2908.5 260.347 2919.08C268.78 2929.76 279.046 2940.45 289.72 2950.47C311.058 2970.49 334.604 2988.36 349.868 2998.76L361.132 2982.24ZM260.507 2880.4C248.436 2843.38 188.014 2677.28 159.391 2599.06L140.609 2605.94C169.32 2684.39 229.564 2850.02 241.493 2886.6L260.507 2880.4ZM159.421 2599.15C154.603 2585.61 147.38 2564.88 141.369 2546.72C138.36 2537.63 135.68 2529.26 133.761 2522.77C132.798 2519.52 132.056 2516.84 131.563 2514.83C130.966 2512.39 131 2511.94 131 2512.5H111C111 2514.76 111.638 2517.55 112.137 2519.58C112.739 2522.04 113.582 2525.07 114.583 2528.45C116.591 2535.23 119.349 2543.84 122.382 2553C128.454 2571.35 135.73 2592.23 140.579 2605.85L159.421 2599.15Z" fill="#F3B93B" class="helmet-15"></path>
    </svg>
    