<svg width="100%" viewBox="0 0 2131 2538" fill="none" xmlns="http://www.w3.org/2000/svg">
    <path d="M1249.1 1345.81C1271.41 1355.98 1300.12 1404.42 1318.78 1436.81C1332.6 1460.77 1345.64 1483.39 1359.17 1496.43C1368.26 1505.19 1379.26 1514.23 1390.9 1523.82C1430.22 1556.17 1474.78 1592.83 1473.54 1639.03C1473.09 1655.99 1459.41 1682.27 1440.49 1692.87C1430.46 1698.49 1420.8 1698.69 1411.73 1693.47C1399.48 1686.42 1399.37 1672.57 1399.25 1657.91C1399.13 1643.05 1399 1626.21 1383.4 1618.75C1379.14 1616.71 1374.97 1615.73 1370.92 1615.79C1363.78 1615.9 1357 1619.25 1350.62 1625.79C1342.56 1634.1 1335.76 1646.82 1329.17 1659.14C1319.22 1677.75 1308.93 1696.99 1295.62 1698.97C1288.02 1700.11 1278.93 1695.46 1268.62 1685.17C1261.16 1677.71 1258.41 1664.98 1255.76 1652.67C1252.53 1637.7 1249.49 1623.55 1238.16 1617.33C1230.6 1613.17 1220.62 1613.46 1207.68 1618.22C1193.73 1623.35 1184.13 1634.93 1174.82 1646.13C1162.97 1660.42 1151.77 1673.91 1132.7 1672.59C1116.29 1671.46 1106.46 1660.35 1101.12 1651.25C1090.33 1632.89 1088.36 1607.14 1096.41 1590.02C1103.81 1574.29 1121.09 1562.78 1137.8 1551.65C1148.14 1544.75 1158.84 1537.63 1166.94 1529.58C1200.46 1496.31 1237.02 1457.07 1246.65 1412.3C1250.41 1394.77 1245.93 1364.3 1249.1 1345.81ZM1249.1 1345.81C1211.81 1348.73 1167.73 1378.46 1130.01 1415.03C1102.53 1441.69 1075.16 1477.22 1048.64 1520.63C998.731 1602.39 1024.85 1651.89 1055.09 1709.19C1071.01 1739.35 1087.46 1770.53 1093.82 1808.71C1098.37 1836.06 1094.7 1854.95 1082.29 1868.19C1071.41 1879.81 1055.16 1885.09 1039.45 1890.21C1018.7 1896.95 997.251 1903.94 986.384 1925.33C977.064 1943.67 976.891 1958.95 985.851 1972.03C1016.74 2017.15 1148.82 2023.35 1198.7 2018.35L1199.01 2018.33C1199.01 2018.33 1199.08 2018.31 1199.09 2018.31C1217.1 2016.46 1238.69 2011.3 1261.56 2005.82C1292.94 1998.3 1328.53 1989.78 1360.89 1988.82C1398.77 1987.71 1426.82 1997.07 1446.72 2017.46C1465.84 2037.07 1474.96 2055.9 1474.61 2075.01C1474.22 2095.79 1462.52 2116.47 1437.74 2140.07C1408.12 2168.31 1353.38 2187.29 1275.04 2196.5C1210.13 2204.13 1143.74 2203.51 1099.45 2202.39C1084.41 2202.02 1069.32 2201.47 1053.34 2200.9C956.09 2197.41 845.864 2193.43 757.304 2230.61C725.291 2244.03 704.637 2269.95 702.05 2299.91C699.597 2328.29 714.131 2355.46 740.917 2372.63C790.597 2404.46 849.917 2409.22 907.277 2413.82C921.224 2414.94 935.637 2416.1 949.677 2417.63L950.01 2417.67C1124.42 2436.63 1331.02 2426.78 1489.13 2391.95C1567.25 2374.75 1626.94 2356.38 1664.37 2322.66C1697.62 2292.69 1715.29 2249.79 1725.36 2174.62C1739.13 2071.69 1754.38 1747.89 1752.68 1636.85C1744.72 1118.5 1731.42 863.648 1723.48 711.368C1718.64 618.328 1715.42 556.861 1716.36 493.381C1716.9 456.528 1707.93 430.168 1688.14 410.421C1673 395.288 1651.06 383.821 1621.12 375.328C1573 361.701 1522.01 358.434 1472.3 356.181C1354.9 350.874 1237.05 354.541 1119.61 356.488C1092.25 356.941 1063.96 357.408 1034.48 357.861C1002.18 358.354 963.437 358.661 918.584 359.008C847.864 359.554 759.837 360.248 643.917 362.021C630.731 362.234 596.717 362.301 565.864 358.594C523.691 353.528 502.544 343.408 501.21 327.661C500.464 318.674 502.984 311.061 508.704 305.048C527.744 285.035 580.064 286.834 630.664 288.568C673.104 290.021 716.984 291.514 729.704 278.994C731.971 276.754 733.144 274.741 732.757 273.741C732.597 273.354 730.851 269.781 717.371 266.914C709.051 265.141 700.064 264.474 696.05 264.354C682.184 263.941 667.904 263.394 654.091 262.848C618.771 261.474 582.224 261.048 547.491 261.901C542.891 262.021 534.21 264.048 527.144 264.141C503.504 267.781 473.131 271.768 461.491 252.034C456.157 242.981 455.531 234.834 459.624 227.834C472.211 206.288 527.984 204.528 575.157 205.408C578.424 205.474 580.997 205.514 582.757 205.514C584.331 205.514 587.117 205.648 590.971 205.848C609.677 206.794 666.637 209.688 680.744 196.074C682.57 194.301 683.411 192.434 683.371 190.208C683.371 189.981 683.357 189.448 682.371 188.554C678.544 185.114 664.224 179.528 611.277 180.848C577.277 181.688 539.984 185.074 519.944 186.888C516.224 187.234 513.051 187.514 510.531 187.728C509.157 187.848 507.451 188.008 505.464 188.194C492.904 189.381 469.504 191.581 448.438 190.608C420.144 189.301 405.09 182.648 402.41 170.274C400.997 163.661 402.291 157.701 406.291 152.568C420.677 134.101 468.504 132.421 491.491 131.608C494.597 131.501 497.277 131.408 499.117 131.288C509.931 130.608 521.024 130.008 531.744 129.421C564.264 127.634 597.877 125.794 630.277 121.661C645.09 119.781 648.211 116.554 648.691 115.928C648.237 114.834 644.797 111.021 632.997 107.181C608.384 99.1812 584.837 100.594 558.731 101.061C556.317 101.114 553.877 101.154 551.424 101.194C504.917 103.888 459.624 104.996 426.064 110.288C386.064 116.594 344.757 112.581 315.571 102.901C296.477 96.5809 286.85 88.0743 286.944 77.6343C287.077 64.3143 303.41 54.5278 317.344 50.2078C359.224 37.2211 555.544 27.701 900.864 21.9143C1186.8 17.1143 1514.36 15.8476 1710.08 15.0876C1797.2 14.7543 1860.16 14.5008 1886.56 14.1008C1927.5 13.4742 1957.85 15.7544 1982.05 21.2744C2009 27.4211 2029.85 38.0877 2045.78 53.8477C2052.72 60.701 2058.82 68.5945 2064.21 77.6611C2066.98 80.7545 2069.13 84.3277 2070.58 88.4077L2070.08 88.5811C2104.81 160.114 2104.18 294.488 2103.05 541.354C2102.53 651.834 2101.9 789.314 2104.41 952.981C2107.28 1139.51 2108.13 1329.18 2108.94 1512.61C2110 1747.25 2111.09 1989.89 2116.41 2228.41C2118.57 2325.11 2096.98 2394.86 2050.41 2441.61C2018.08 2474.06 1973.42 2495.65 1913.89 2507.59C1877.54 2514.89 1835.9 2518.75 1783.01 2519.57C1765.85 2519.82 1747.5 2519.77 1727.77 2519.41C1672.01 2518.37 1546.21 2519.55 1400.53 2520.94C1363.01 2521.29 1325.5 2521.65 1287.98 2521.98C1224.5 2522.54 1161.01 2523.03 1097.53 2523.37C1034.97 2523.7 972.424 2523.9 909.864 2523.77C854.171 2523.66 798.477 2523.33 742.784 2522.41C691.21 2521.55 639.544 2520.65 588.104 2516.93C554.584 2514.51 525.037 2507.55 500.264 2496.26C476.984 2485.65 457.184 2470.85 441.41 2452.29C379.984 2379.98 385.237 2258.99 394.971 2151.26C400.544 2089.65 409.157 2028.63 417.477 1969.63C425.877 1910.15 434.557 1848.65 440.197 1786.07C446.931 1711.51 452.904 1625.63 438.451 1549.85C430.05 1505.83 414.157 1460.83 381.864 1428.51C368.024 1414.66 351.53 1403.73 333.477 1396.17C321.384 1391.1 314.771 1389.29 302.384 1394.41C289.637 1399.69 278.01 1407.27 265.277 1412.58C246.984 1420.19 227.664 1425.5 207.997 1427.95C179.051 1431.58 136.93 1430.57 100.65 1405.22C68.8905 1383.03 43.2107 1348.19 28.3307 1307.11C12.1307 1262.43 9.61048 1213.58 21.0505 1165.86C30.7038 1125.54 61.5438 1086.21 105.65 1057.95C134.624 1039.39 166.197 1027.58 196.717 1023.46M1249.1 1345.81C1250.58 1345.7 1250.03 1356.87 1251.5 1357M1249.1 1345.81C1281.13 1149.43 1274.05 934.381 1268.25 758.141C1266.65 709.474 1265.14 663.501 1264.49 620.594C1263.92 583.848 1252.96 555.808 1230.96 534.888C1203.56 508.834 1159.6 493.888 1092.6 487.834C1032.01 482.381 960.011 484.888 883.771 487.554C849.677 488.741 814.424 489.968 779.157 490.515C702.277 491.688 642.731 498.168 597.131 510.301C553.064 522.021 520.864 539.368 498.664 563.354C473.184 590.861 459.757 627.194 455.104 681.141C450.784 731.274 454.584 792.954 458.997 864.381C462.317 918.168 466.091 979.128 467.117 1046.46C468.077 1108.87 495.01 1147.5 551.877 1167.99C603.69 1186.67 677.317 1189.54 771.917 1188.09C957.491 1185.23 1015.82 1163.29 1055.66 1081.37C1059.18 1074.11 1062.89 1066.77 1066.8 1058.98C1083.69 1025.45 1102.82 987.421 1110.46 950.421C1121.04 899.248 1104.13 851.288 1059.97 822.914C1047.3 814.781 1033.53 808.448 1019.41 803.314C985.13 790.861 948.41 785.328 912.077 783.888C835.837 780.874 765.237 797.128 727.85 826.301C709.73 840.434 701.984 857.328 704.85 876.514C706.704 888.861 719.09 909.728 728.077 922.248M1249.1 1345.81C1246.88 1345.55 1246.29 1345.63 1244 1345.81M728.077 922.248C753.89 953.781 795.651 982.154 827.037 994.181C863.131 1008.01 983.411 999.088 1024.65 960.341C1036.84 948.874 1040.57 936.341 1036.06 921.981C1029.28 900.341 1013.89 884.848 990.331 875.941C948.424 860.088 891.144 867.714 850.451 876.914C813.69 885.221 775.611 899.688 745.771 912.728C739.037 915.661 733.544 919.368 728.077 922.248ZM728.077 922.248C728.077 922.248 717.744 927.754 717.064 928.114C691.677 941.754 663.784 956.728 639.971 957.101C631.624 957.221 623.784 955.554 616.717 951.421C597.584 940.194 587.904 912.808 587.131 867.701C586.144 809.101 587.384 762.701 596.664 726.728C605.824 691.221 622.584 667.061 651.01 648.394C693.97 620.168 773.197 603.914 868.371 603.781C957.184 603.648 1042.33 618.061 1090.58 641.394C1111.77 651.634 1128.66 666.034 1142.24 685.434C1154.6 703.114 1163.94 724.634 1170.8 751.221C1184.18 803.128 1186.25 869.208 1187.22 932.434M1132.02 1682.46CLL948.917 2427.49M196.717 1023.46C199.557 1040.33 204.264 1065.61 207.691 1079.78C213.957 1105.62 221.264 1126.97 229.424 1143.21C238.771 1161.82 249.557 1174.35 261.491 1180.45C275.691 1187.7 291.397 1186.13 308.171 1175.75C341.437 1155.18 343.877 1129.09 340.064 1110.83C331.144 1068.13 280.397 1028.73 242.691 1023.34C231.051 1021.69 209.104 1022.45 196.717 1023.46ZM196.717 1023.46C191.784 991.994 187.851 956.208 184.971 916.461" stroke="#F3B93B" stroke-width="20" stroke-linecap="round" stroke-linejoin="round" class="face-logo"></path>
</svg>
    