<svg width="50%" viewBox="0 0 3129 3129" fill="none" xmlns="http://www.w3.org/2000/svg">
<path fill-rule="evenodd" clip-rule="evenodd" d="M485 -0.000488281C217.142 -0.000488281 0 217.141 0 484.999V2644C0 2911.86 217.142 3129 485 3129H2644C2911.86 3129 3129 2911.86 3129 2644V485C3129 217.141 2911.86 -0.000488281 2644 -0.000488281H485ZM424 1564C424 937 937 424 1564 424C2191 424 2704 937 2704 1564C2704 2191 2191 2704 1564 2704C937 2704 424 2191 424 1564ZM2327.8 1187.8C2191 902.8 1894.6 709 1564 709C1233.4 709 937 902.8 800.2 1187.8C766 1233.4 823 1290.4 880 1267.6C1028.2 1199.2 1279 1096.6 1564 1096.6C1849 1096.6 2099.8 1199.2 2248 1267.6C2293.6 1301.8 2350.6 1244.8 2327.8 1187.8ZM1336 2384.8C1358.8 2396.2 1381.6 2373.4 1381.6 2350.6C1381.6 2008.6 1119.4 1746.4 788.8 1746.4H777.4C754.6 1746.4 731.8 1769.2 743.2 1792C823 2077 1051 2305 1336 2384.8ZM1324.6 1564C1324.6 1700.8 1438.6 1803.4 1564 1803.4C1689.4 1803.4 1803.4 1700.8 1803.4 1564C1803.4 1427.2 1700.8 1324.6 1564 1324.6C1427.2 1324.6 1324.6 1427.2 1324.6 1564ZM1746.4 2350.6C1746.4 2373.4 1769.2 2396.2 1792 2384.8C2077 2305 2305 2077 2384.8 1792C2396.2 1769.2 2373.4 1746.4 2350.6 1746.4H2339.2C2008.6 1746.4 1746.4 2008.6 1746.4 2339.2V2350.6Z" fill="#F5F4F5"/>
</svg>
