<svg width="3129" height="3129" viewBox="0 0 3129 3129" fill="none" xmlns="http://www.w3.org/2000/svg">
<path fill-rule="evenodd" clip-rule="evenodd" d="M485 0C217.142 0 0 217.142 0 485V2644C0 2911.86 217.142 3129 485 3129H2644C2911.86 3129 3129 2911.86 3129 2644V485C3129 217.142 2911.86 0 2644 0H485ZM1266.47 1641.48H1009.31C988.405 1641.48 971.469 1624.54 971.469 1603.63V1218.86C971.469 1197.96 988.405 1181.02 1009.31 1181.02H1279.27V895.323C1273.89 864.386 1251.38 685.954 1413.34 536.93C1559.52 402.451 1744.57 392 1797.81 392C1804.9 392 1809.7 392.174 1811.87 392.28H2118.7C2139.6 392.28 2156.54 409.217 2156.54 430.119V787.876C2156.54 808.771 2139.6 825.715 2118.7 825.715H1896.06C1817.84 825.715 1778.18 863.062 1778.18 936.711V1181.03H2118.7C2129.48 1181.03 2139.76 1185.64 2146.94 1193.69C2154.12 1201.73 2157.52 1212.47 2156.28 1223.2L2111.38 1612.95C2109.19 1632.04 2093.02 1646.47 2073.79 1646.47H1778.17V2700.16C1778.17 2721.06 1761.23 2738 1740.33 2738H1304.31C1283.4 2738 1266.47 2721.06 1266.47 2700.16V1641.48Z" fill="#F5F4F5"/>
</svg>
