<svg width="3129" height="3129" viewBox="0 0 3129 3129" fill="none" xmlns="http://www.w3.org/2000/svg">
<path fill-rule="evenodd" clip-rule="evenodd" d="M485 0C217.142 0 0 217.142 0 485V2644C0 2911.86 217.142 3129 485 3129H2644C2911.86 3129 3129 2911.86 3129 2644V485C3129 217.142 2911.86 0 2644 0H485ZM2017.67 653.413C1899.51 648 1864.04 646.88 1565 646.88C1265.96 646.88 1230.59 648 1112.43 653.32C808.627 667.133 667.227 811.24 653.32 1112.43C648 1230.59 646.787 1265.96 646.787 1565C646.787 1864.13 647.907 1899.51 653.32 2017.57C667.133 2318.2 808.16 2462.87 1112.43 2476.77C1230.49 2482.19 1265.96 2483.31 1565 2483.31C1864.23 2483.31 1899.51 2482.19 2017.67 2476.77C2321.47 2462.96 2462.87 2318.67 2476.77 2017.67C2482.09 1899.6 2483.21 1864.23 2483.21 1565.09C2483.21 1266.05 2482.19 1230.59 2476.77 1112.52C2462.96 811.24 2321.19 667.227 2017.67 653.413ZM1103.28 451.72C1222.75 446.307 1260.83 445 1565 445C1869.17 445 1907.35 446.307 2026.91 451.813C2434.03 470.48 2659.99 696.907 2678.28 1103.28C2683.69 1222.75 2685 1260.83 2685 1565C2685 1869.17 2683.69 1907.35 2678.19 2026.81C2659.8 2433.93 2433.19 2659.61 2026.81 2678.28C1907.35 2683.69 1869.17 2685 1565 2685C1260.83 2685 1222.75 2683.69 1103.19 2678.28C696.067 2659.61 470.387 2433.56 451.72 2026.81C446.307 1907.35 445 1869.17 445 1565C445 1260.83 446.307 1222.75 451.813 1103.19C470.48 696.067 696.533 470.387 1103.28 451.72ZM989.88 1565C989.88 1247.39 1247.39 989.88 1565 989.88C1882.61 989.88 2140.12 1247.39 2140.12 1565C2140.12 1882.71 1882.61 2140.21 1565 2140.21C1247.39 2140.21 989.88 1882.61 989.88 1565ZM1191.67 1565C1191.67 1771.27 1358.83 1938.33 1565 1938.33C1771.17 1938.33 1938.33 1771.27 1938.33 1565C1938.33 1358.83 1771.17 1191.67 1565 1191.67C1358.83 1191.67 1191.67 1358.83 1191.67 1565ZM2028.4 967.2C2028.4 893 2088.6 832.8 2162.89 832.8C2237.09 832.8 2297.2 893 2297.2 967.2C2297.2 1041.4 2237.09 1101.6 2162.89 1101.6C2088.6 1101.6 2028.4 1041.4 2028.4 967.2Z" fill="#F5F4F5"/>
</svg>
