<svg width="3129" height="3129" viewBox="0 0 3129 3129" fill="none" xmlns="http://www.w3.org/2000/svg">
<path fill-rule="evenodd" clip-rule="evenodd" d="M485 0C217.142 0 0 217.142 0 485V2644C0 2911.86 217.142 3129 485 3129H2644C2911.86 3129 3129 2911.86 3129 2644V485C3129 217.142 2911.86 0 2644 0H485ZM2636.48 900.213C2636.48 900.211 2636.48 900.21 2636.49 900.208H2636.48C2636.48 900.21 2636.48 900.211 2636.48 900.213ZM2636.48 900.213C2557.62 935.193 2472.86 958.824 2383.93 969.455C2474.71 915.031 2544.45 828.85 2577.27 726.153C2492.3 776.558 2398.19 813.148 2298.02 832.869C2217.81 747.396 2103.52 694 1977.04 694C1734.19 694 1537.28 890.895 1537.28 1133.76C1537.28 1168.23 1541.17 1201.79 1548.67 1233.98C1183.19 1215.64 859.17 1040.56 642.275 774.49C604.422 839.439 582.731 914.977 582.731 995.575C582.731 1148.15 660.366 1282.75 778.362 1361.62C706.278 1359.33 638.471 1339.55 579.183 1306.61C579.133 1308.44 579.133 1310.28 579.133 1312.14V1312.14C579.133 1525.21 730.717 1702.94 931.89 1743.37C894.99 1753.42 856.14 1758.79 816.037 1758.79C787.7 1758.79 760.158 1756.03 733.3 1750.9C789.265 1925.61 951.663 2052.76 1144.1 2056.29C993.599 2174.25 803.991 2244.56 597.953 2244.56C562.457 2244.56 527.455 2242.47 493.053 2238.41C687.666 2363.19 918.815 2436 1167.15 2436C1976.01 2436 2418.34 1765.9 2418.34 1184.74C2418.34 1165.67 2417.91 1146.72 2417.07 1127.84C2502.97 1065.85 2577.52 988.407 2636.48 900.213Z" fill="#F5F4F5"/>
</svg>
