<svg width="160" height="160" viewBox="0 0 160 160" fill="none" xmlns="http://www.w3.org/2000/svg">
<path d="M83.93 0.0997994C62.584 -0.948601 42.11 6.37291 26.287 20.7218C10.44 35.0858 1.14804 54.7449 0.100042 76.0769C-0.948358 97.4239 6.37294 117.899 20.737 133.731C35.078 149.562 54.736 158.855 76.082 159.903C120.154 162.067 157.74 127.984 159.904 83.9258C162.068 39.8669 128.002 2.2638 83.93 0.0997994V0.0997994ZM147.154 83.2998C146.787 90.7687 145.192 97.8868 142.615 104.476C137.249 103.777 131.952 102.89 126.727 101.801C132.087 88.7868 133.919 74.5208 131.887 60.1968C129.952 46.5718 124.645 34.2178 116.963 23.8778C136.142 36.5468 148.361 58.7218 147.154 83.2998H147.154ZM95.843 27.2558C82.695 42.3558 71.474 59.1388 62.569 77.2808C55.0371 72.9154 47.786 68.1129 40.845 62.9208C46.5072 52.1598 54.996 43.1108 65.67 36.6988C75.1561 30.9842 85.497 27.9245 95.843 27.2561V27.2558ZM57.259 88.9538C51.5801 102.388 47.129 116.494 44.08 131.127C43.611 130.416 43.15 129.691 42.7121 128.959C33.4528 113.569 30.7501 95.4827 35.0812 78.0777C35.3212 77.0734 35.6052 76.1171 35.8912 75.1152C42.7427 80.1119 49.8722 84.7328 57.2592 88.9533L57.259 88.9538ZM62.1448 138.019C59.9675 138.332 57.7969 138.508 55.6378 138.608C58.4303 123.435 62.7904 108.851 68.5588 95.0008C80.9738 101.203 94.0148 106.32 107.589 110.226C107.212 110.742 106.834 111.296 106.441 111.827C95.6436 126.186 79.9246 135.476 62.1446 138.018L62.1448 138.019ZM73.8208 83.3648C82.7835 64.9728 94.2628 48.0648 107.807 32.9998C113.667 41.3781 117.708 51.1798 119.241 61.9738C121.045 74.6988 119.221 87.3518 114.11 98.7898C100.057 94.9825 86.5766 89.7824 73.8206 83.3648H73.8208ZM34.8588 30.1968C48.1638 18.1228 65.3638 11.9698 83.3038 12.8508C87.3582 13.0498 91.3172 13.6338 95.1398 14.5092C82.7718 15.2922 70.4158 18.9329 59.0878 25.7492C47.0988 32.9603 37.4248 42.9672 30.7238 54.8232C27.6138 52.1952 24.5761 49.4945 21.6047 46.6898C25.0819 40.5961 29.5187 35.0308 34.8587 30.1978L34.8588 30.1968ZM12.8578 76.7038C13.1578 70.5992 14.2814 64.6728 16.1404 59.0188C19.0874 61.7 22.0991 64.3079 25.1828 66.8507C24.2208 69.4925 23.384 72.2093 22.682 74.9939C19.2549 88.7759 19.5547 102.893 23.363 116.198C15.8696 104.516 12.164 90.8419 12.858 76.7039L12.8578 76.7038ZM78.4628 147.194C93.5948 142.085 106.851 132.56 116.652 119.496C118.09 117.58 119.44 115.607 120.694 113.575C125.885 114.724 131.124 115.699 136.44 116.51C124.11 135.493 102.537 147.764 78.4626 147.193L78.4628 147.194Z" fill="#F3B93B"/>
</svg>
